<!-- Generated by IcoMoon.io -->
<svg version="1.1" xmlns="http://www.w3.org/2000/svg" width="640" height="640" viewBox="0 0 640 640">
<title></title>
<g id="icomoon-ignore">
</g>
<path style="fill:#e78500;" d="M468.8 272.384c-72.96-157.024-110.912-216.672-230.112-214.176-42.464 0.864-32.288-30.784-64.672-18.784-32.32 12-4.576 29.568-37.664 56.736-92.864 76.256-84.32 146.784-41.248 314.88 18.144 70.816-43.744 74.272-19.264 142.88 17.888 50.048 149.728 71.008 288.8 19.424 139.104-51.616 226.752-154.048 208.864-204.096-24.48-68.64-73.952-30.752-104.704-96.864zM349.568 531.040c-124.224 46.080-226.304 19.008-230.624 6.944-7.424-20.8 40.096-90.112 182.112-142.816s221.28-33.152 229.568-9.952c4.896 13.728-56.8 99.712-181.056 145.824zM309.632 419.232c-64.928 24.096-110.048 51.648-139.296 76.448 20.576 18.688 59.104 23.232 97.472 8.992 48.864-18.080 78.912-59.712 67.040-92.928-0.16-0.416-0.352-0.736-0.512-1.152-8.032 2.624-16.256 5.472-24.704 8.64z"></path>
</svg>
