<?xml version="1.0" encoding="iso-8859-1"?>
<!-- Generator: Adobe Illustrator 19.0.0, SVG Export Plug-In . SVG Version: 6.00 Build 0)  -->
<svg version="1.1" id="Capa_1" xmlns="http://www.w3.org/2000/svg" xmlns:xlink="http://www.w3.org/1999/xlink" x="0px" y="0px"
	 viewBox="0 0 372 372" style="enable-background:new 0 0 372 372;" xml:space="preserve">
<path style="fill:#FFE05F;" d="M159.2,295.28h53.6v49.12h-53.6L159.2,295.28z"/>
<path style="fill:#FFA757;" d="M52,295.28c-21.28,0-44-11.6-44-44v-19.44h356v19.36c0,21.28-11.6,44-44,44L52,295.28z"/>
<path style="fill:#FFFFFF;" d="M8,231.84v-160c0-32.48,22.72-44,44-44h268c21.28,0,44,11.6,44,44v160H8z M118.8,100.72l-55.04,89.52
	L118.8,100.72z M210.8,107.52l34.32,44.64L210.8,107.52L158,167.2L210.8,107.52z M311.28,63.76l-65.92,88.48L311.28,63.76z"/>
<g>
	<path style="fill:#3F342B;" d="M320,19.6H52c-25.12,0-52,13.68-52,52v179.68c0,38.32,26.88,52,52,52h99.2v33.12h-16.48
		c-4.418,0-8,3.582-8,8s3.582,8,8,8h105.6c4.418,0,8-3.582,8-8s-3.582-8-8-8H220.8v-33.12H320c38.32,0,52-26.88,52-52V71.6
		C372,33.28,345.12,19.6,320,19.6z M204.8,336.4h-37.6v-33.12h37.6V336.4z M356,251.28c0,10.8-3.52,36-36,36H52
		c-10.8,0-36-3.52-36-36v-11.44h340V251.28z M356,223.92H16v-152c0-32.48,25.2-36,36-36h268c10.8,0,36,3.52,36,36V223.92z"/>
	<path style="fill:#3F342B;" d="M304.88,58.96l-59.68,80l-28-36.4c-1.458-1.897-3.689-3.041-6.08-3.12
		c-2.381-0.068-4.669,0.93-6.24,2.72L159.28,154l-33.44-57.12c-1.426-2.405-4.004-3.891-6.8-3.92c-2.808-0.016-5.42,1.441-6.88,3.84
		L56.96,186c-2.841,3.384-2.4,8.43,0.984,11.271c3.384,2.841,8.43,2.4,11.271-0.984c0.573-0.682,1.027-1.455,1.345-2.287l48-78.24
		l32,55.12c2.231,3.814,7.131,5.096,10.945,2.865c0.724-0.424,1.377-0.959,1.935-1.585L210,120.08l28.56,37.12
		c1.634,1.85,3.937,2.972,6.4,3.12c2.49-0.025,4.826-1.208,6.32-3.2l66-88.56c2.654-3.532,1.942-8.547-1.59-11.201
		c-3.532-2.654-8.547-1.942-11.201,1.59c-0.003,0.004-0.006,0.007-0.008,0.011L304.88,58.96z"/>
</g>
<g>
</g>
<g>
</g>
<g>
</g>
<g>
</g>
<g>
</g>
<g>
</g>
<g>
</g>
<g>
</g>
<g>
</g>
<g>
</g>
<g>
</g>
<g>
</g>
<g>
</g>
<g>
</g>
<g>
</g>
</svg>
